<svg width="240" height="240" viewBox="0 0 240 240" fill="none" xmlns="http://www.w3.org/2000/svg">
<g clip-path="url(#clip0_1612_18277)">
<path d="M166.591 9.37264C166.531 9.37264 166.531 9.37264 166.531 9.31217C165.321 35.6765 159.033 67.0597 143.492 93.2426C125.654 123.296 95.6009 146.274 49.2819 146.274V121.723C85.7445 121.723 108.299 104.369 122.328 80.7256C136.357 57.0824 141.799 26.969 142.101 2.05593C134.906 0.725624 127.528 0 119.97 0C53.6961 0 0 53.6961 0 119.97C0 186.243 53.6961 239.94 119.97 239.94C186.243 239.94 239.94 186.243 239.94 119.97C240 70.2646 209.705 27.5737 166.591 9.37264ZM190.718 177.717H49.2215V153.53H190.718V177.717Z" fill="#5939A4"/>
<path fill-rule="evenodd" clip-rule="evenodd" d="M166.47 9.31219C158.791 6.10735 150.688 3.62814 142.283 2.05595C142.222 2.05595 142.162 2.05595 142.101 1.99548C150.567 3.56767 158.73 6.04688 166.47 9.31219Z" fill="white"/>
<path d="M190.718 153.53H49.2214V177.717H190.718V153.53Z" fill="white"/>
<path fill-rule="evenodd" clip-rule="evenodd" d="M166.47 9.31219C165.261 35.6765 158.972 67.0597 143.432 93.2426C125.593 123.296 95.5404 146.274 49.2214 146.274V121.723C85.684 121.723 108.239 104.369 122.268 80.7256C136.357 57.0824 141.799 26.969 142.101 1.99548C150.567 3.56767 158.73 6.04688 166.47 9.31219Z" fill="white"/>
</g>
<defs>
<clipPath id="clip0_1612_18277">
<rect width="240" height="240" fill="white"/>
</clipPath>
</defs>
</svg>
